<?xml version="1.0" encoding="UTF-8"?>
<svg xmlns="http://www.w3.org/2000/svg" width="672" height="576">
  <rect width="672" height="576" fill="#1a1a2e"/>
  <rect x="24.0" y="24.0" width="48" height="48" fill="#e91e8c"/>
  <rect x="72.0" y="24.0" width="48" height="48" fill="#e91e8c"/>
  <rect x="120.0" y="24.0" width="48" height="48" fill="#e91e8c"/>
  <rect x="168.0" y="24.0" width="48" height="48" fill="#00bcd4"/>
  <rect x="216.0" y="24.0" width="48" height="48" fill="#00bcd4"/>
  <rect x="120.0" y="72.0" width="48" height="48" fill="#e91e8c"/>
  <rect x="168.0" y="72.0" width="48" height="48" fill="#ff9800"/>
  <rect x="216.0" y="72.0" width="48" height="48" fill="#00bcd4"/>
  <rect x="264.0" y="72.0" width="48" height="48" fill="#00bcd4"/>
  <rect x="312.0" y="72.0" width="48" height="48" fill="#ff9800"/>
  <rect x="360.0" y="72.0" width="48" height="48" fill="#00bcd4"/>
  <rect x="408.0" y="72.0" width="48" height="48" fill="#ff9800"/>
  <rect x="456.0" y="72.0" width="48" height="48" fill="#ff9800"/>
  <rect x="504.0" y="72.0" width="48" height="48" fill="#ff9800"/>
  <rect x="552.0" y="72.0" width="48" height="48" fill="#ff9800"/>
  <rect x="120.0" y="120.0" width="48" height="48" fill="#e91e8c"/>
  <rect x="168.0" y="120.0" width="48" height="48" fill="#ff9800"/>
  <rect x="216.0" y="120.0" width="48" height="48" fill="#ff9800"/>
  <rect x="264.0" y="120.0" width="48" height="48" fill="#00bcd4"/>
  <rect x="312.0" y="120.0" width="48" height="48" fill="#ff9800"/>
  <rect x="360.0" y="120.0" width="48" height="48" fill="#00bcd4"/>
  <rect x="408.0" y="120.0" width="48" height="48" fill="#00bcd4"/>
  <rect x="456.0" y="120.0" width="48" height="48" fill="#ff9800"/>
  <rect x="504.0" y="120.0" width="48" height="48" fill="#00bcd4"/>
  <rect x="552.0" y="120.0" width="48" height="48" fill="#00bcd4"/>
  <rect x="168.0" y="168.0" width="48" height="48" fill="#ff9800"/>
  <rect x="216.0" y="168.0" width="48" height="48" fill="#00bcd4"/>
  <rect x="264.0" y="168.0" width="48" height="48" fill="#ff9800"/>
  <rect x="312.0" y="168.0" width="48" height="48" fill="#ff9800"/>
  <rect x="360.0" y="168.0" width="48" height="48" fill="#e91e8c"/>
  <rect x="408.0" y="168.0" width="48" height="48" fill="#00bcd4"/>
  <rect x="456.0" y="168.0" width="48" height="48" fill="#00bcd4"/>
  <rect x="504.0" y="168.0" width="48" height="48" fill="#ff9800"/>
  <rect x="552.0" y="168.0" width="48" height="48" fill="#00bcd4"/>
  <rect x="600.0" y="168.0" width="48" height="48" fill="#00bcd4"/>
  <rect x="168.0" y="216.0" width="48" height="48" fill="#ff9800"/>
  <rect x="216.0" y="216.0" width="48" height="48" fill="#00bcd4"/>
  <rect x="264.0" y="216.0" width="48" height="48" fill="#00bcd4"/>
  <rect x="312.0" y="216.0" width="48" height="48" fill="#ff9800"/>
  <rect x="360.0" y="216.0" width="48" height="48" fill="#e91e8c"/>
  <rect x="408.0" y="216.0" width="48" height="48" fill="#ff9800"/>
  <rect x="456.0" y="216.0" width="48" height="48" fill="#ff9800"/>
  <rect x="504.0" y="216.0" width="48" height="48" fill="#ff9800"/>
  <rect x="552.0" y="216.0" width="48" height="48" fill="#ff9800"/>
  <rect x="600.0" y="216.0" width="48" height="48" fill="#00bcd4"/>
  <rect x="120.0" y="264.0" width="48" height="48" fill="#e91e8c"/>
  <rect x="168.0" y="264.0" width="48" height="48" fill="#e91e8c"/>
  <rect x="216.0" y="264.0" width="48" height="48" fill="#e91e8c"/>
  <rect x="264.0" y="264.0" width="48" height="48" fill="#00bcd4"/>
  <rect x="312.0" y="264.0" width="48" height="48" fill="#00bcd4"/>
  <rect x="360.0" y="264.0" width="48" height="48" fill="#e91e8c"/>
  <rect x="408.0" y="264.0" width="48" height="48" fill="#e91e8c"/>
  <rect x="456.0" y="264.0" width="48" height="48" fill="#e91e8c"/>
  <rect x="504.0" y="264.0" width="48" height="48" fill="#00bcd4"/>
  <rect x="552.0" y="264.0" width="48" height="48" fill="#00bcd4"/>
  <rect x="120.0" y="312.0" width="48" height="48" fill="#e91e8c"/>
  <rect x="168.0" y="312.0" width="48" height="48" fill="#ff9800"/>
  <rect x="216.0" y="312.0" width="48" height="48" fill="#ff9800"/>
  <rect x="264.0" y="312.0" width="48" height="48" fill="#ff9800"/>
  <rect x="312.0" y="312.0" width="48" height="48" fill="#ff9800"/>
  <rect x="360.0" y="312.0" width="48" height="48" fill="#00bcd4"/>
  <rect x="408.0" y="312.0" width="48" height="48" fill="#ff9800"/>
  <rect x="456.0" y="312.0" width="48" height="48" fill="#00bcd4"/>
  <rect x="504.0" y="312.0" width="48" height="48" fill="#00bcd4"/>
  <rect x="552.0" y="312.0" width="48" height="48" fill="#ff9800"/>
  <rect x="120.0" y="360.0" width="48" height="48" fill="#e91e8c"/>
  <rect x="168.0" y="360.0" width="48" height="48" fill="#00bcd4"/>
  <rect x="216.0" y="360.0" width="48" height="48" fill="#00bcd4"/>
  <rect x="264.0" y="360.0" width="48" height="48" fill="#ff9800"/>
  <rect x="312.0" y="360.0" width="48" height="48" fill="#00bcd4"/>
  <rect x="360.0" y="360.0" width="48" height="48" fill="#00bcd4"/>
  <rect x="408.0" y="360.0" width="48" height="48" fill="#ff9800"/>
  <rect x="456.0" y="360.0" width="48" height="48" fill="#00bcd4"/>
  <rect x="504.0" y="360.0" width="48" height="48" fill="#ff9800"/>
  <rect x="552.0" y="360.0" width="48" height="48" fill="#ff9800"/>
  <rect x="120.0" y="408.0" width="48" height="48" fill="#00bcd4"/>
  <rect x="168.0" y="408.0" width="48" height="48" fill="#00bcd4"/>
  <rect x="216.0" y="408.0" width="48" height="48" fill="#ff9800"/>
  <rect x="264.0" y="408.0" width="48" height="48" fill="#00bcd4"/>
  <rect x="312.0" y="408.0" width="48" height="48" fill="#00bcd4"/>
  <rect x="360.0" y="408.0" width="48" height="48" fill="#e91e8c"/>
  <rect x="408.0" y="408.0" width="48" height="48" fill="#ff9800"/>
  <rect x="456.0" y="408.0" width="48" height="48" fill="#ff9800"/>
  <rect x="504.0" y="408.0" width="48" height="48" fill="#00bcd4"/>
  <rect x="552.0" y="408.0" width="48" height="48" fill="#ff9800"/>
  <rect x="120.0" y="456.0" width="48" height="48" fill="#00bcd4"/>
  <rect x="168.0" y="456.0" width="48" height="48" fill="#ff9800"/>
  <rect x="216.0" y="456.0" width="48" height="48" fill="#ff9800"/>
  <rect x="264.0" y="456.0" width="48" height="48" fill="#ff9800"/>
  <rect x="312.0" y="456.0" width="48" height="48" fill="#ff9800"/>
  <rect x="360.0" y="456.0" width="48" height="48" fill="#e91e8c"/>
  <rect x="408.0" y="456.0" width="48" height="48" fill="#ff9800"/>
  <rect x="456.0" y="456.0" width="48" height="48" fill="#00bcd4"/>
  <rect x="504.0" y="456.0" width="48" height="48" fill="#00bcd4"/>
  <rect x="552.0" y="456.0" width="48" height="48" fill="#ff9800"/>
  <rect x="264.0" y="504.0" width="48" height="48" fill="#e91e8c"/>
  <rect x="312.0" y="504.0" width="48" height="48" fill="#e91e8c"/>
  <rect x="360.0" y="504.0" width="48" height="48" fill="#e91e8c"/>
  <rect x="408.0" y="504.0" width="48" height="48" fill="#00bcd4"/>
  <rect x="456.0" y="504.0" width="48" height="48" fill="#00bcd4"/>
  <text x="48.0" y="48.0" font-family="monospace" font-size="18" font-weight="bold" fill="rgba(0,0,0,0.55)" text-anchor="middle" dominant-baseline="central">V</text>
  <text x="96.0" y="48.0" font-family="monospace" font-size="18" font-weight="bold" fill="rgba(0,0,0,0.55)" text-anchor="middle" dominant-baseline="central">V</text>
  <text x="144.0" y="48.0" font-family="monospace" font-size="18" font-weight="bold" fill="rgba(0,0,0,0.55)" text-anchor="middle" dominant-baseline="central">V</text>
  <text x="192.0" y="48.0" font-family="monospace" font-size="18" font-weight="bold" fill="rgba(0,0,0,0.55)" text-anchor="middle" dominant-baseline="central">W</text>
  <text x="240.0" y="48.0" font-family="monospace" font-size="18" font-weight="bold" fill="rgba(0,0,0,0.55)" text-anchor="middle" dominant-baseline="central">W</text>
  <text x="144.0" y="96.0" font-family="monospace" font-size="18" font-weight="bold" fill="rgba(0,0,0,0.55)" text-anchor="middle" dominant-baseline="central">V</text>
  <text x="192.0" y="96.0" font-family="monospace" font-size="18" font-weight="bold" fill="rgba(0,0,0,0.55)" text-anchor="middle" dominant-baseline="central">Y</text>
  <text x="240.0" y="96.0" font-family="monospace" font-size="18" font-weight="bold" fill="rgba(0,0,0,0.55)" text-anchor="middle" dominant-baseline="central">W</text>
  <text x="288.0" y="96.0" font-family="monospace" font-size="18" font-weight="bold" fill="rgba(0,0,0,0.55)" text-anchor="middle" dominant-baseline="central">W</text>
  <text x="336.0" y="96.0" font-family="monospace" font-size="18" font-weight="bold" fill="rgba(0,0,0,0.55)" text-anchor="middle" dominant-baseline="central">Y</text>
  <text x="384.0" y="96.0" font-family="monospace" font-size="18" font-weight="bold" fill="rgba(0,0,0,0.55)" text-anchor="middle" dominant-baseline="central">W</text>
  <text x="432.0" y="96.0" font-family="monospace" font-size="18" font-weight="bold" fill="rgba(0,0,0,0.55)" text-anchor="middle" dominant-baseline="central">Y</text>
  <text x="480.0" y="96.0" font-family="monospace" font-size="18" font-weight="bold" fill="rgba(0,0,0,0.55)" text-anchor="middle" dominant-baseline="central">Y</text>
  <text x="528.0" y="96.0" font-family="monospace" font-size="18" font-weight="bold" fill="rgba(0,0,0,0.55)" text-anchor="middle" dominant-baseline="central">Y</text>
  <text x="576.0" y="96.0" font-family="monospace" font-size="18" font-weight="bold" fill="rgba(0,0,0,0.55)" text-anchor="middle" dominant-baseline="central">Y</text>
  <text x="144.0" y="144.0" font-family="monospace" font-size="18" font-weight="bold" fill="rgba(0,0,0,0.55)" text-anchor="middle" dominant-baseline="central">V</text>
  <text x="192.0" y="144.0" font-family="monospace" font-size="18" font-weight="bold" fill="rgba(0,0,0,0.55)" text-anchor="middle" dominant-baseline="central">Y</text>
  <text x="240.0" y="144.0" font-family="monospace" font-size="18" font-weight="bold" fill="rgba(0,0,0,0.55)" text-anchor="middle" dominant-baseline="central">Y</text>
  <text x="288.0" y="144.0" font-family="monospace" font-size="18" font-weight="bold" fill="rgba(0,0,0,0.55)" text-anchor="middle" dominant-baseline="central">W</text>
  <text x="336.0" y="144.0" font-family="monospace" font-size="18" font-weight="bold" fill="rgba(0,0,0,0.55)" text-anchor="middle" dominant-baseline="central">Y</text>
  <text x="384.0" y="144.0" font-family="monospace" font-size="18" font-weight="bold" fill="rgba(0,0,0,0.55)" text-anchor="middle" dominant-baseline="central">W</text>
  <text x="432.0" y="144.0" font-family="monospace" font-size="18" font-weight="bold" fill="rgba(0,0,0,0.55)" text-anchor="middle" dominant-baseline="central">W</text>
  <text x="480.0" y="144.0" font-family="monospace" font-size="18" font-weight="bold" fill="rgba(0,0,0,0.55)" text-anchor="middle" dominant-baseline="central">Y</text>
  <text x="528.0" y="144.0" font-family="monospace" font-size="18" font-weight="bold" fill="rgba(0,0,0,0.55)" text-anchor="middle" dominant-baseline="central">W</text>
  <text x="576.0" y="144.0" font-family="monospace" font-size="18" font-weight="bold" fill="rgba(0,0,0,0.55)" text-anchor="middle" dominant-baseline="central">W</text>
  <text x="192.0" y="192.0" font-family="monospace" font-size="18" font-weight="bold" fill="rgba(0,0,0,0.55)" text-anchor="middle" dominant-baseline="central">Y</text>
  <text x="240.0" y="192.0" font-family="monospace" font-size="18" font-weight="bold" fill="rgba(0,0,0,0.55)" text-anchor="middle" dominant-baseline="central">W</text>
  <text x="288.0" y="192.0" font-family="monospace" font-size="18" font-weight="bold" fill="rgba(0,0,0,0.55)" text-anchor="middle" dominant-baseline="central">Y</text>
  <text x="336.0" y="192.0" font-family="monospace" font-size="18" font-weight="bold" fill="rgba(0,0,0,0.55)" text-anchor="middle" dominant-baseline="central">Y</text>
  <text x="384.0" y="192.0" font-family="monospace" font-size="18" font-weight="bold" fill="rgba(0,0,0,0.55)" text-anchor="middle" dominant-baseline="central">V</text>
  <text x="432.0" y="192.0" font-family="monospace" font-size="18" font-weight="bold" fill="rgba(0,0,0,0.55)" text-anchor="middle" dominant-baseline="central">W</text>
  <text x="480.0" y="192.0" font-family="monospace" font-size="18" font-weight="bold" fill="rgba(0,0,0,0.55)" text-anchor="middle" dominant-baseline="central">W</text>
  <text x="528.0" y="192.0" font-family="monospace" font-size="18" font-weight="bold" fill="rgba(0,0,0,0.55)" text-anchor="middle" dominant-baseline="central">Y</text>
  <text x="576.0" y="192.0" font-family="monospace" font-size="18" font-weight="bold" fill="rgba(0,0,0,0.55)" text-anchor="middle" dominant-baseline="central">W</text>
  <text x="624.0" y="192.0" font-family="monospace" font-size="18" font-weight="bold" fill="rgba(0,0,0,0.55)" text-anchor="middle" dominant-baseline="central">W</text>
  <text x="192.0" y="240.0" font-family="monospace" font-size="18" font-weight="bold" fill="rgba(0,0,0,0.55)" text-anchor="middle" dominant-baseline="central">Y</text>
  <text x="240.0" y="240.0" font-family="monospace" font-size="18" font-weight="bold" fill="rgba(0,0,0,0.55)" text-anchor="middle" dominant-baseline="central">W</text>
  <text x="288.0" y="240.0" font-family="monospace" font-size="18" font-weight="bold" fill="rgba(0,0,0,0.55)" text-anchor="middle" dominant-baseline="central">W</text>
  <text x="336.0" y="240.0" font-family="monospace" font-size="18" font-weight="bold" fill="rgba(0,0,0,0.55)" text-anchor="middle" dominant-baseline="central">Y</text>
  <text x="384.0" y="240.0" font-family="monospace" font-size="18" font-weight="bold" fill="rgba(0,0,0,0.55)" text-anchor="middle" dominant-baseline="central">V</text>
  <text x="432.0" y="240.0" font-family="monospace" font-size="18" font-weight="bold" fill="rgba(0,0,0,0.55)" text-anchor="middle" dominant-baseline="central">Y</text>
  <text x="480.0" y="240.0" font-family="monospace" font-size="18" font-weight="bold" fill="rgba(0,0,0,0.55)" text-anchor="middle" dominant-baseline="central">Y</text>
  <text x="528.0" y="240.0" font-family="monospace" font-size="18" font-weight="bold" fill="rgba(0,0,0,0.55)" text-anchor="middle" dominant-baseline="central">Y</text>
  <text x="576.0" y="240.0" font-family="monospace" font-size="18" font-weight="bold" fill="rgba(0,0,0,0.55)" text-anchor="middle" dominant-baseline="central">Y</text>
  <text x="624.0" y="240.0" font-family="monospace" font-size="18" font-weight="bold" fill="rgba(0,0,0,0.55)" text-anchor="middle" dominant-baseline="central">W</text>
  <text x="144.0" y="288.0" font-family="monospace" font-size="18" font-weight="bold" fill="rgba(0,0,0,0.55)" text-anchor="middle" dominant-baseline="central">V</text>
  <text x="192.0" y="288.0" font-family="monospace" font-size="18" font-weight="bold" fill="rgba(0,0,0,0.55)" text-anchor="middle" dominant-baseline="central">V</text>
  <text x="240.0" y="288.0" font-family="monospace" font-size="18" font-weight="bold" fill="rgba(0,0,0,0.55)" text-anchor="middle" dominant-baseline="central">V</text>
  <text x="288.0" y="288.0" font-family="monospace" font-size="18" font-weight="bold" fill="rgba(0,0,0,0.55)" text-anchor="middle" dominant-baseline="central">W</text>
  <text x="336.0" y="288.0" font-family="monospace" font-size="18" font-weight="bold" fill="rgba(0,0,0,0.55)" text-anchor="middle" dominant-baseline="central">W</text>
  <text x="384.0" y="288.0" font-family="monospace" font-size="18" font-weight="bold" fill="rgba(0,0,0,0.55)" text-anchor="middle" dominant-baseline="central">V</text>
  <text x="432.0" y="288.0" font-family="monospace" font-size="18" font-weight="bold" fill="rgba(0,0,0,0.55)" text-anchor="middle" dominant-baseline="central">V</text>
  <text x="480.0" y="288.0" font-family="monospace" font-size="18" font-weight="bold" fill="rgba(0,0,0,0.55)" text-anchor="middle" dominant-baseline="central">V</text>
  <text x="528.0" y="288.0" font-family="monospace" font-size="18" font-weight="bold" fill="rgba(0,0,0,0.55)" text-anchor="middle" dominant-baseline="central">W</text>
  <text x="576.0" y="288.0" font-family="monospace" font-size="18" font-weight="bold" fill="rgba(0,0,0,0.55)" text-anchor="middle" dominant-baseline="central">W</text>
  <text x="144.0" y="336.0" font-family="monospace" font-size="18" font-weight="bold" fill="rgba(0,0,0,0.55)" text-anchor="middle" dominant-baseline="central">V</text>
  <text x="192.0" y="336.0" font-family="monospace" font-size="18" font-weight="bold" fill="rgba(0,0,0,0.55)" text-anchor="middle" dominant-baseline="central">Y</text>
  <text x="240.0" y="336.0" font-family="monospace" font-size="18" font-weight="bold" fill="rgba(0,0,0,0.55)" text-anchor="middle" dominant-baseline="central">Y</text>
  <text x="288.0" y="336.0" font-family="monospace" font-size="18" font-weight="bold" fill="rgba(0,0,0,0.55)" text-anchor="middle" dominant-baseline="central">Y</text>
  <text x="336.0" y="336.0" font-family="monospace" font-size="18" font-weight="bold" fill="rgba(0,0,0,0.55)" text-anchor="middle" dominant-baseline="central">Y</text>
  <text x="384.0" y="336.0" font-family="monospace" font-size="18" font-weight="bold" fill="rgba(0,0,0,0.55)" text-anchor="middle" dominant-baseline="central">W</text>
  <text x="432.0" y="336.0" font-family="monospace" font-size="18" font-weight="bold" fill="rgba(0,0,0,0.55)" text-anchor="middle" dominant-baseline="central">Y</text>
  <text x="480.0" y="336.0" font-family="monospace" font-size="18" font-weight="bold" fill="rgba(0,0,0,0.55)" text-anchor="middle" dominant-baseline="central">W</text>
  <text x="528.0" y="336.0" font-family="monospace" font-size="18" font-weight="bold" fill="rgba(0,0,0,0.55)" text-anchor="middle" dominant-baseline="central">W</text>
  <text x="576.0" y="336.0" font-family="monospace" font-size="18" font-weight="bold" fill="rgba(0,0,0,0.55)" text-anchor="middle" dominant-baseline="central">Y</text>
  <text x="144.0" y="384.0" font-family="monospace" font-size="18" font-weight="bold" fill="rgba(0,0,0,0.55)" text-anchor="middle" dominant-baseline="central">V</text>
  <text x="192.0" y="384.0" font-family="monospace" font-size="18" font-weight="bold" fill="rgba(0,0,0,0.55)" text-anchor="middle" dominant-baseline="central">W</text>
  <text x="240.0" y="384.0" font-family="monospace" font-size="18" font-weight="bold" fill="rgba(0,0,0,0.55)" text-anchor="middle" dominant-baseline="central">W</text>
  <text x="288.0" y="384.0" font-family="monospace" font-size="18" font-weight="bold" fill="rgba(0,0,0,0.55)" text-anchor="middle" dominant-baseline="central">Y</text>
  <text x="336.0" y="384.0" font-family="monospace" font-size="18" font-weight="bold" fill="rgba(0,0,0,0.55)" text-anchor="middle" dominant-baseline="central">W</text>
  <text x="384.0" y="384.0" font-family="monospace" font-size="18" font-weight="bold" fill="rgba(0,0,0,0.55)" text-anchor="middle" dominant-baseline="central">W</text>
  <text x="432.0" y="384.0" font-family="monospace" font-size="18" font-weight="bold" fill="rgba(0,0,0,0.55)" text-anchor="middle" dominant-baseline="central">Y</text>
  <text x="480.0" y="384.0" font-family="monospace" font-size="18" font-weight="bold" fill="rgba(0,0,0,0.55)" text-anchor="middle" dominant-baseline="central">W</text>
  <text x="528.0" y="384.0" font-family="monospace" font-size="18" font-weight="bold" fill="rgba(0,0,0,0.55)" text-anchor="middle" dominant-baseline="central">Y</text>
  <text x="576.0" y="384.0" font-family="monospace" font-size="18" font-weight="bold" fill="rgba(0,0,0,0.55)" text-anchor="middle" dominant-baseline="central">Y</text>
  <text x="144.0" y="432.0" font-family="monospace" font-size="18" font-weight="bold" fill="rgba(0,0,0,0.55)" text-anchor="middle" dominant-baseline="central">W</text>
  <text x="192.0" y="432.0" font-family="monospace" font-size="18" font-weight="bold" fill="rgba(0,0,0,0.55)" text-anchor="middle" dominant-baseline="central">W</text>
  <text x="240.0" y="432.0" font-family="monospace" font-size="18" font-weight="bold" fill="rgba(0,0,0,0.55)" text-anchor="middle" dominant-baseline="central">Y</text>
  <text x="288.0" y="432.0" font-family="monospace" font-size="18" font-weight="bold" fill="rgba(0,0,0,0.55)" text-anchor="middle" dominant-baseline="central">W</text>
  <text x="336.0" y="432.0" font-family="monospace" font-size="18" font-weight="bold" fill="rgba(0,0,0,0.55)" text-anchor="middle" dominant-baseline="central">W</text>
  <text x="384.0" y="432.0" font-family="monospace" font-size="18" font-weight="bold" fill="rgba(0,0,0,0.55)" text-anchor="middle" dominant-baseline="central">V</text>
  <text x="432.0" y="432.0" font-family="monospace" font-size="18" font-weight="bold" fill="rgba(0,0,0,0.55)" text-anchor="middle" dominant-baseline="central">Y</text>
  <text x="480.0" y="432.0" font-family="monospace" font-size="18" font-weight="bold" fill="rgba(0,0,0,0.55)" text-anchor="middle" dominant-baseline="central">Y</text>
  <text x="528.0" y="432.0" font-family="monospace" font-size="18" font-weight="bold" fill="rgba(0,0,0,0.55)" text-anchor="middle" dominant-baseline="central">W</text>
  <text x="576.0" y="432.0" font-family="monospace" font-size="18" font-weight="bold" fill="rgba(0,0,0,0.55)" text-anchor="middle" dominant-baseline="central">Y</text>
  <text x="144.0" y="480.0" font-family="monospace" font-size="18" font-weight="bold" fill="rgba(0,0,0,0.55)" text-anchor="middle" dominant-baseline="central">W</text>
  <text x="192.0" y="480.0" font-family="monospace" font-size="18" font-weight="bold" fill="rgba(0,0,0,0.55)" text-anchor="middle" dominant-baseline="central">Y</text>
  <text x="240.0" y="480.0" font-family="monospace" font-size="18" font-weight="bold" fill="rgba(0,0,0,0.55)" text-anchor="middle" dominant-baseline="central">Y</text>
  <text x="288.0" y="480.0" font-family="monospace" font-size="18" font-weight="bold" fill="rgba(0,0,0,0.55)" text-anchor="middle" dominant-baseline="central">Y</text>
  <text x="336.0" y="480.0" font-family="monospace" font-size="18" font-weight="bold" fill="rgba(0,0,0,0.55)" text-anchor="middle" dominant-baseline="central">Y</text>
  <text x="384.0" y="480.0" font-family="monospace" font-size="18" font-weight="bold" fill="rgba(0,0,0,0.55)" text-anchor="middle" dominant-baseline="central">V</text>
  <text x="432.0" y="480.0" font-family="monospace" font-size="18" font-weight="bold" fill="rgba(0,0,0,0.55)" text-anchor="middle" dominant-baseline="central">Y</text>
  <text x="480.0" y="480.0" font-family="monospace" font-size="18" font-weight="bold" fill="rgba(0,0,0,0.55)" text-anchor="middle" dominant-baseline="central">W</text>
  <text x="528.0" y="480.0" font-family="monospace" font-size="18" font-weight="bold" fill="rgba(0,0,0,0.55)" text-anchor="middle" dominant-baseline="central">W</text>
  <text x="576.0" y="480.0" font-family="monospace" font-size="18" font-weight="bold" fill="rgba(0,0,0,0.55)" text-anchor="middle" dominant-baseline="central">Y</text>
  <text x="288.0" y="528.0" font-family="monospace" font-size="18" font-weight="bold" fill="rgba(0,0,0,0.55)" text-anchor="middle" dominant-baseline="central">V</text>
  <text x="336.0" y="528.0" font-family="monospace" font-size="18" font-weight="bold" fill="rgba(0,0,0,0.55)" text-anchor="middle" dominant-baseline="central">V</text>
  <text x="384.0" y="528.0" font-family="monospace" font-size="18" font-weight="bold" fill="rgba(0,0,0,0.55)" text-anchor="middle" dominant-baseline="central">V</text>
  <text x="432.0" y="528.0" font-family="monospace" font-size="18" font-weight="bold" fill="rgba(0,0,0,0.55)" text-anchor="middle" dominant-baseline="central">W</text>
  <text x="480.0" y="528.0" font-family="monospace" font-size="18" font-weight="bold" fill="rgba(0,0,0,0.55)" text-anchor="middle" dominant-baseline="central">W</text>
  <line x1="24.0" y1="72.0" x2="72.0" y2="72.0" stroke="#111" stroke-width="3" stroke-linecap="square"/>
  <line x1="72.0" y1="72.0" x2="120.0" y2="72.0" stroke="#111" stroke-width="3" stroke-linecap="square"/>
  <line x1="168.0" y1="72.0" x2="216.0" y2="72.0" stroke="#111" stroke-width="3" stroke-linecap="square"/>
  <line x1="264.0" y1="72.0" x2="312.0" y2="72.0" stroke="#111" stroke-width="3" stroke-linecap="square"/>
  <line x1="312.0" y1="72.0" x2="360.0" y2="72.0" stroke="#111" stroke-width="3" stroke-linecap="square"/>
  <line x1="360.0" y1="72.0" x2="408.0" y2="72.0" stroke="#111" stroke-width="3" stroke-linecap="square"/>
  <line x1="408.0" y1="72.0" x2="456.0" y2="72.0" stroke="#111" stroke-width="3" stroke-linecap="square"/>
  <line x1="456.0" y1="72.0" x2="504.0" y2="72.0" stroke="#111" stroke-width="3" stroke-linecap="square"/>
  <line x1="504.0" y1="72.0" x2="552.0" y2="72.0" stroke="#111" stroke-width="3" stroke-linecap="square"/>
  <line x1="552.0" y1="72.0" x2="600.0" y2="72.0" stroke="#111" stroke-width="3" stroke-linecap="square"/>
  <line x1="216.0" y1="120.0" x2="264.0" y2="120.0" stroke="#111" stroke-width="3" stroke-linecap="square"/>
  <line x1="408.0" y1="120.0" x2="456.0" y2="120.0" stroke="#111" stroke-width="3" stroke-linecap="square"/>
  <line x1="504.0" y1="120.0" x2="552.0" y2="120.0" stroke="#111" stroke-width="3" stroke-linecap="square"/>
  <line x1="552.0" y1="120.0" x2="600.0" y2="120.0" stroke="#111" stroke-width="3" stroke-linecap="square"/>
  <line x1="120.0" y1="168.0" x2="168.0" y2="168.0" stroke="#111" stroke-width="3" stroke-linecap="square"/>
  <line x1="216.0" y1="168.0" x2="264.0" y2="168.0" stroke="#111" stroke-width="3" stroke-linecap="square"/>
  <line x1="264.0" y1="168.0" x2="312.0" y2="168.0" stroke="#111" stroke-width="3" stroke-linecap="square"/>
  <line x1="360.0" y1="168.0" x2="408.0" y2="168.0" stroke="#111" stroke-width="3" stroke-linecap="square"/>
  <line x1="456.0" y1="168.0" x2="504.0" y2="168.0" stroke="#111" stroke-width="3" stroke-linecap="square"/>
  <line x1="504.0" y1="168.0" x2="552.0" y2="168.0" stroke="#111" stroke-width="3" stroke-linecap="square"/>
  <line x1="600.0" y1="168.0" x2="648.0" y2="168.0" stroke="#111" stroke-width="3" stroke-linecap="square"/>
  <line x1="264.0" y1="216.0" x2="312.0" y2="216.0" stroke="#111" stroke-width="3" stroke-linecap="square"/>
  <line x1="408.0" y1="216.0" x2="456.0" y2="216.0" stroke="#111" stroke-width="3" stroke-linecap="square"/>
  <line x1="456.0" y1="216.0" x2="504.0" y2="216.0" stroke="#111" stroke-width="3" stroke-linecap="square"/>
  <line x1="552.0" y1="216.0" x2="600.0" y2="216.0" stroke="#111" stroke-width="3" stroke-linecap="square"/>
  <line x1="120.0" y1="264.0" x2="168.0" y2="264.0" stroke="#111" stroke-width="3" stroke-linecap="square"/>
  <line x1="168.0" y1="264.0" x2="216.0" y2="264.0" stroke="#111" stroke-width="3" stroke-linecap="square"/>
  <line x1="216.0" y1="264.0" x2="264.0" y2="264.0" stroke="#111" stroke-width="3" stroke-linecap="square"/>
  <line x1="312.0" y1="264.0" x2="360.0" y2="264.0" stroke="#111" stroke-width="3" stroke-linecap="square"/>
  <line x1="408.0" y1="264.0" x2="456.0" y2="264.0" stroke="#111" stroke-width="3" stroke-linecap="square"/>
  <line x1="456.0" y1="264.0" x2="504.0" y2="264.0" stroke="#111" stroke-width="3" stroke-linecap="square"/>
  <line x1="504.0" y1="264.0" x2="552.0" y2="264.0" stroke="#111" stroke-width="3" stroke-linecap="square"/>
  <line x1="552.0" y1="264.0" x2="600.0" y2="264.0" stroke="#111" stroke-width="3" stroke-linecap="square"/>
  <line x1="600.0" y1="264.0" x2="648.0" y2="264.0" stroke="#111" stroke-width="3" stroke-linecap="square"/>
  <line x1="168.0" y1="312.0" x2="216.0" y2="312.0" stroke="#111" stroke-width="3" stroke-linecap="square"/>
  <line x1="216.0" y1="312.0" x2="264.0" y2="312.0" stroke="#111" stroke-width="3" stroke-linecap="square"/>
  <line x1="264.0" y1="312.0" x2="312.0" y2="312.0" stroke="#111" stroke-width="3" stroke-linecap="square"/>
  <line x1="312.0" y1="312.0" x2="360.0" y2="312.0" stroke="#111" stroke-width="3" stroke-linecap="square"/>
  <line x1="360.0" y1="312.0" x2="408.0" y2="312.0" stroke="#111" stroke-width="3" stroke-linecap="square"/>
  <line x1="408.0" y1="312.0" x2="456.0" y2="312.0" stroke="#111" stroke-width="3" stroke-linecap="square"/>
  <line x1="456.0" y1="312.0" x2="504.0" y2="312.0" stroke="#111" stroke-width="3" stroke-linecap="square"/>
  <line x1="552.0" y1="312.0" x2="600.0" y2="312.0" stroke="#111" stroke-width="3" stroke-linecap="square"/>
  <line x1="168.0" y1="360.0" x2="216.0" y2="360.0" stroke="#111" stroke-width="3" stroke-linecap="square"/>
  <line x1="216.0" y1="360.0" x2="264.0" y2="360.0" stroke="#111" stroke-width="3" stroke-linecap="square"/>
  <line x1="312.0" y1="360.0" x2="360.0" y2="360.0" stroke="#111" stroke-width="3" stroke-linecap="square"/>
  <line x1="504.0" y1="360.0" x2="552.0" y2="360.0" stroke="#111" stroke-width="3" stroke-linecap="square"/>
  <line x1="120.0" y1="408.0" x2="168.0" y2="408.0" stroke="#111" stroke-width="3" stroke-linecap="square"/>
  <line x1="216.0" y1="408.0" x2="264.0" y2="408.0" stroke="#111" stroke-width="3" stroke-linecap="square"/>
  <line x1="264.0" y1="408.0" x2="312.0" y2="408.0" stroke="#111" stroke-width="3" stroke-linecap="square"/>
  <line x1="360.0" y1="408.0" x2="408.0" y2="408.0" stroke="#111" stroke-width="3" stroke-linecap="square"/>
  <line x1="456.0" y1="408.0" x2="504.0" y2="408.0" stroke="#111" stroke-width="3" stroke-linecap="square"/>
  <line x1="504.0" y1="408.0" x2="552.0" y2="408.0" stroke="#111" stroke-width="3" stroke-linecap="square"/>
  <line x1="168.0" y1="456.0" x2="216.0" y2="456.0" stroke="#111" stroke-width="3" stroke-linecap="square"/>
  <line x1="264.0" y1="456.0" x2="312.0" y2="456.0" stroke="#111" stroke-width="3" stroke-linecap="square"/>
  <line x1="312.0" y1="456.0" x2="360.0" y2="456.0" stroke="#111" stroke-width="3" stroke-linecap="square"/>
  <line x1="456.0" y1="456.0" x2="504.0" y2="456.0" stroke="#111" stroke-width="3" stroke-linecap="square"/>
  <line x1="120.0" y1="504.0" x2="168.0" y2="504.0" stroke="#111" stroke-width="3" stroke-linecap="square"/>
  <line x1="168.0" y1="504.0" x2="216.0" y2="504.0" stroke="#111" stroke-width="3" stroke-linecap="square"/>
  <line x1="216.0" y1="504.0" x2="264.0" y2="504.0" stroke="#111" stroke-width="3" stroke-linecap="square"/>
  <line x1="264.0" y1="504.0" x2="312.0" y2="504.0" stroke="#111" stroke-width="3" stroke-linecap="square"/>
  <line x1="312.0" y1="504.0" x2="360.0" y2="504.0" stroke="#111" stroke-width="3" stroke-linecap="square"/>
  <line x1="408.0" y1="504.0" x2="456.0" y2="504.0" stroke="#111" stroke-width="3" stroke-linecap="square"/>
  <line x1="504.0" y1="504.0" x2="552.0" y2="504.0" stroke="#111" stroke-width="3" stroke-linecap="square"/>
  <line x1="552.0" y1="504.0" x2="600.0" y2="504.0" stroke="#111" stroke-width="3" stroke-linecap="square"/>
  <line x1="168.0" y1="24.0" x2="168.0" y2="72.0" stroke="#111" stroke-width="3" stroke-linecap="square"/>
  <line x1="264.0" y1="24.0" x2="264.0" y2="72.0" stroke="#111" stroke-width="3" stroke-linecap="square"/>
  <line x1="120.0" y1="72.0" x2="120.0" y2="120.0" stroke="#111" stroke-width="3" stroke-linecap="square"/>
  <line x1="168.0" y1="72.0" x2="168.0" y2="120.0" stroke="#111" stroke-width="3" stroke-linecap="square"/>
  <line x1="216.0" y1="72.0" x2="216.0" y2="120.0" stroke="#111" stroke-width="3" stroke-linecap="square"/>
  <line x1="312.0" y1="72.0" x2="312.0" y2="120.0" stroke="#111" stroke-width="3" stroke-linecap="square"/>
  <line x1="360.0" y1="72.0" x2="360.0" y2="120.0" stroke="#111" stroke-width="3" stroke-linecap="square"/>
  <line x1="408.0" y1="72.0" x2="408.0" y2="120.0" stroke="#111" stroke-width="3" stroke-linecap="square"/>
  <line x1="600.0" y1="72.0" x2="600.0" y2="120.0" stroke="#111" stroke-width="3" stroke-linecap="square"/>
  <line x1="120.0" y1="120.0" x2="120.0" y2="168.0" stroke="#111" stroke-width="3" stroke-linecap="square"/>
  <line x1="168.0" y1="120.0" x2="168.0" y2="168.0" stroke="#111" stroke-width="3" stroke-linecap="square"/>
  <line x1="264.0" y1="120.0" x2="264.0" y2="168.0" stroke="#111" stroke-width="3" stroke-linecap="square"/>
  <line x1="312.0" y1="120.0" x2="312.0" y2="168.0" stroke="#111" stroke-width="3" stroke-linecap="square"/>
  <line x1="360.0" y1="120.0" x2="360.0" y2="168.0" stroke="#111" stroke-width="3" stroke-linecap="square"/>
  <line x1="456.0" y1="120.0" x2="456.0" y2="168.0" stroke="#111" stroke-width="3" stroke-linecap="square"/>
  <line x1="504.0" y1="120.0" x2="504.0" y2="168.0" stroke="#111" stroke-width="3" stroke-linecap="square"/>
  <line x1="600.0" y1="120.0" x2="600.0" y2="168.0" stroke="#111" stroke-width="3" stroke-linecap="square"/>
  <line x1="168.0" y1="168.0" x2="168.0" y2="216.0" stroke="#111" stroke-width="3" stroke-linecap="square"/>
  <line x1="216.0" y1="168.0" x2="216.0" y2="216.0" stroke="#111" stroke-width="3" stroke-linecap="square"/>
  <line x1="264.0" y1="168.0" x2="264.0" y2="216.0" stroke="#111" stroke-width="3" stroke-linecap="square"/>
  <line x1="360.0" y1="168.0" x2="360.0" y2="216.0" stroke="#111" stroke-width="3" stroke-linecap="square"/>
  <line x1="408.0" y1="168.0" x2="408.0" y2="216.0" stroke="#111" stroke-width="3" stroke-linecap="square"/>
  <line x1="504.0" y1="168.0" x2="504.0" y2="216.0" stroke="#111" stroke-width="3" stroke-linecap="square"/>
  <line x1="552.0" y1="168.0" x2="552.0" y2="216.0" stroke="#111" stroke-width="3" stroke-linecap="square"/>
  <line x1="168.0" y1="216.0" x2="168.0" y2="264.0" stroke="#111" stroke-width="3" stroke-linecap="square"/>
  <line x1="216.0" y1="216.0" x2="216.0" y2="264.0" stroke="#111" stroke-width="3" stroke-linecap="square"/>
  <line x1="312.0" y1="216.0" x2="312.0" y2="264.0" stroke="#111" stroke-width="3" stroke-linecap="square"/>
  <line x1="360.0" y1="216.0" x2="360.0" y2="264.0" stroke="#111" stroke-width="3" stroke-linecap="square"/>
  <line x1="408.0" y1="216.0" x2="408.0" y2="264.0" stroke="#111" stroke-width="3" stroke-linecap="square"/>
  <line x1="600.0" y1="216.0" x2="600.0" y2="264.0" stroke="#111" stroke-width="3" stroke-linecap="square"/>
  <line x1="120.0" y1="264.0" x2="120.0" y2="312.0" stroke="#111" stroke-width="3" stroke-linecap="square"/>
  <line x1="264.0" y1="264.0" x2="264.0" y2="312.0" stroke="#111" stroke-width="3" stroke-linecap="square"/>
  <line x1="360.0" y1="264.0" x2="360.0" y2="312.0" stroke="#111" stroke-width="3" stroke-linecap="square"/>
  <line x1="504.0" y1="264.0" x2="504.0" y2="312.0" stroke="#111" stroke-width="3" stroke-linecap="square"/>
  <line x1="600.0" y1="264.0" x2="600.0" y2="312.0" stroke="#111" stroke-width="3" stroke-linecap="square"/>
  <line x1="120.0" y1="312.0" x2="120.0" y2="360.0" stroke="#111" stroke-width="3" stroke-linecap="square"/>
  <line x1="168.0" y1="312.0" x2="168.0" y2="360.0" stroke="#111" stroke-width="3" stroke-linecap="square"/>
  <line x1="360.0" y1="312.0" x2="360.0" y2="360.0" stroke="#111" stroke-width="3" stroke-linecap="square"/>
  <line x1="408.0" y1="312.0" x2="408.0" y2="360.0" stroke="#111" stroke-width="3" stroke-linecap="square"/>
  <line x1="456.0" y1="312.0" x2="456.0" y2="360.0" stroke="#111" stroke-width="3" stroke-linecap="square"/>
  <line x1="552.0" y1="312.0" x2="552.0" y2="360.0" stroke="#111" stroke-width="3" stroke-linecap="square"/>
  <line x1="600.0" y1="312.0" x2="600.0" y2="360.0" stroke="#111" stroke-width="3" stroke-linecap="square"/>
  <line x1="120.0" y1="360.0" x2="120.0" y2="408.0" stroke="#111" stroke-width="3" stroke-linecap="square"/>
  <line x1="168.0" y1="360.0" x2="168.0" y2="408.0" stroke="#111" stroke-width="3" stroke-linecap="square"/>
  <line x1="264.0" y1="360.0" x2="264.0" y2="408.0" stroke="#111" stroke-width="3" stroke-linecap="square"/>
  <line x1="312.0" y1="360.0" x2="312.0" y2="408.0" stroke="#111" stroke-width="3" stroke-linecap="square"/>
  <line x1="408.0" y1="360.0" x2="408.0" y2="408.0" stroke="#111" stroke-width="3" stroke-linecap="square"/>
  <line x1="456.0" y1="360.0" x2="456.0" y2="408.0" stroke="#111" stroke-width="3" stroke-linecap="square"/>
  <line x1="504.0" y1="360.0" x2="504.0" y2="408.0" stroke="#111" stroke-width="3" stroke-linecap="square"/>
  <line x1="600.0" y1="360.0" x2="600.0" y2="408.0" stroke="#111" stroke-width="3" stroke-linecap="square"/>
  <line x1="120.0" y1="408.0" x2="120.0" y2="456.0" stroke="#111" stroke-width="3" stroke-linecap="square"/>
  <line x1="216.0" y1="408.0" x2="216.0" y2="456.0" stroke="#111" stroke-width="3" stroke-linecap="square"/>
  <line x1="264.0" y1="408.0" x2="264.0" y2="456.0" stroke="#111" stroke-width="3" stroke-linecap="square"/>
  <line x1="360.0" y1="408.0" x2="360.0" y2="456.0" stroke="#111" stroke-width="3" stroke-linecap="square"/>
  <line x1="408.0" y1="408.0" x2="408.0" y2="456.0" stroke="#111" stroke-width="3" stroke-linecap="square"/>
  <line x1="504.0" y1="408.0" x2="504.0" y2="456.0" stroke="#111" stroke-width="3" stroke-linecap="square"/>
  <line x1="552.0" y1="408.0" x2="552.0" y2="456.0" stroke="#111" stroke-width="3" stroke-linecap="square"/>
  <line x1="600.0" y1="408.0" x2="600.0" y2="456.0" stroke="#111" stroke-width="3" stroke-linecap="square"/>
  <line x1="120.0" y1="456.0" x2="120.0" y2="504.0" stroke="#111" stroke-width="3" stroke-linecap="square"/>
  <line x1="168.0" y1="456.0" x2="168.0" y2="504.0" stroke="#111" stroke-width="3" stroke-linecap="square"/>
  <line x1="360.0" y1="456.0" x2="360.0" y2="504.0" stroke="#111" stroke-width="3" stroke-linecap="square"/>
  <line x1="408.0" y1="456.0" x2="408.0" y2="504.0" stroke="#111" stroke-width="3" stroke-linecap="square"/>
  <line x1="456.0" y1="456.0" x2="456.0" y2="504.0" stroke="#111" stroke-width="3" stroke-linecap="square"/>
  <line x1="552.0" y1="456.0" x2="552.0" y2="504.0" stroke="#111" stroke-width="3" stroke-linecap="square"/>
  <line x1="600.0" y1="456.0" x2="600.0" y2="504.0" stroke="#111" stroke-width="3" stroke-linecap="square"/>
  <line x1="264.0" y1="504.0" x2="264.0" y2="552.0" stroke="#111" stroke-width="3" stroke-linecap="square"/>
  <line x1="408.0" y1="504.0" x2="408.0" y2="552.0" stroke="#111" stroke-width="3" stroke-linecap="square"/>
  <line x1="504.0" y1="504.0" x2="504.0" y2="552.0" stroke="#111" stroke-width="3" stroke-linecap="square"/>
  <text x="336.0" y="564.0" font-family="monospace" font-size="11" fill="#aaa" text-anchor="middle">10×10 torus — one copy of each tile</text>
</svg>
